Coordinates
version=1
nRows=19
nColumns=24
inDegrees=yes

Units are S.I. units (second, meters, Newtons, ...)
Angles are in degrees.

endheader
time	pelvis_tilt	pelvis_list	pelvis_rotation	pelvis_tx	pelvis_ty	pelvis_tz	hip_flexion_r	hip_adduction_r	hip_rotation_r	knee_angle_r	ankle_angle_r	subtalar_angle_r	mtp_angle_r	hip_flexion_l	hip_adduction_l	hip_rotation_l	knee_angle_l	ankle_angle_l	subtalar_angle_l	mtp_angle_l	lumbar_extension	lumbar_bending	lumbar_rotation
      0.72500000	     -3.06221012	      5.01006184	     13.78865030	      0.10273881	      0.97200759	      0.23298484	     31.21760031	     -9.35641006	    -12.67913039	     -3.18005683	     10.57642260	     -6.25024662	      9.90091984	    -22.30695507	      4.41225783	     14.63699233	     -2.90546061	      7.24454252	     -6.99790468	     13.87071883	     -2.71081532	     -5.90955741	     -6.27740276
      0.72916667	     -3.05983193	      4.96798108	     13.91933780	      0.10914263	      0.97148786	      0.23299889	     31.13475289	     -9.32860708	    -12.55344890	     -3.59335383	     10.69704960	     -6.36949229	      9.87032099	    -22.45425740	      4.24687707	     14.66819380	     -3.28006436	      6.99178837	     -6.90107934	     13.91347905	     -2.66989540	     -5.82444367	     -6.36136025
      0.73333333	     -3.04557025	      4.91641542	     14.04301315	      0.11562423	      0.97100760	      0.23302572	     31.03507757	     -9.28277653	    -12.45397227	     -4.02577496	     10.75415699	     -6.49696987	      9.85352612	    -22.60032630	      4.07157895	     14.66347354	     -3.67946150	      6.71801382	     -6.80789111	     13.95467084	     -2.61492284	     -5.73229346	     -6.43346672
      0.73750000	     -3.03477224	      4.84527670	     14.15024533	      0.12215974	      0.97053818	      0.23311298	     30.92765431	     -9.19844248	    -12.27659951	     -4.44314973	     10.71150259	     -6.72050083	      9.80653444	    -22.70460276	      3.88217160	     14.54674539	     -4.14413309	      6.48861026	     -6.53128471	     14.17473235	     -2.57906060	     -5.61758232	     -6.64884046
      0.74166667	     -3.02982498	      4.77081577	     14.25850617	      0.12876541	      0.97008961	      0.23317746	     30.84479343	     -9.11934683	    -12.19615680	     -4.92293185	     10.67456039	     -6.81222529	      9.80306097	    -22.82050926	      3.69252022	     14.54518614	     -4.57230054	      6.15644342	     -6.47910728	     14.21058823	     -2.51720981	     -5.50194292	     -6.65692185
      0.74583333	     -3.01291065	      4.67447968	     14.32734105	      0.13546057	      0.96966264	      0.23333716	     30.72589946	     -8.97792908	    -11.97056334	     -5.34270823	     10.49997669	     -7.14391535	      9.80440255	    -22.91057616	      3.48643552	     14.33150597	     -5.06293825	      5.86530655	     -6.14567396	     14.57784460	     -2.43154104	     -5.35529115	     -6.80203212
      0.75000000	     -2.98846687	      4.56288408	     14.40466613	      0.14221534	      0.96927904	      0.23346097	     30.62189313	     -8.83701899	    -11.90142899	     -5.82876758	     10.39156716	     -7.19562490	     10.20430819	    -22.98672574	      3.26021880	     14.09356846	     -5.57550253	      5.46925336	     -5.85333652	     19.49819324	     -2.35941853	     -5.19092094	     -6.75685202
      0.75416667	     -3.01309695	      4.45457040	     14.45695433	      0.14901350	      0.96885750	      0.23363141	     30.57328740	     -8.68615293	    -11.71185172	     -6.30908972	     10.07810352	     -7.51649572	     10.21702060	    -23.04274847	      3.06564761	     14.03049754	     -6.03787500	      5.03156139	     -5.82723246	     19.56981895	     -2.21704841	     -5.04765808	     -6.88501445
      0.75833333	     -2.99975268	      4.34231628	     14.50095898	      0.15586190	      0.96852146	      0.23378983	     30.50149945	     -8.53050125	    -11.63365498	     -6.83303655	      9.80672435	     -7.62446484	     10.22703064	    -23.11705518	      2.86190044	     13.90204769	     -6.53443750	      4.54476931	     -5.74851376	     19.60732749	     -2.10465824	     -4.89177559	     -6.90956930
      0.76250000	     -3.01683348	      4.17786547	     14.51889111	      0.16276834	      0.96815332	      0.23405660	     30.44378428	     -8.29426642	    -11.39422041	     -7.28457193	      9.36712853	     -8.06308922	     10.29807437	    -23.09385851	      2.61792965	     13.59286312	     -7.13772051	      4.17072987	     -5.37667169	     19.83380772	     -1.96309798	     -4.67927289	     -6.95729857
      0.76666667	     -3.03112521	      4.01564305	     14.52009766	      0.16972265	      0.96781855	      0.23430348	     30.41245775	     -8.06491689	    -11.23446351	     -7.79710009	      8.93598835	     -8.35021891	     10.41676888	    -23.07251005	      2.38565482	     13.29284357	     -7.73940972	      3.70664493	     -5.08837413	     20.18283244	     -1.80240394	     -4.47075690	     -6.96163992
      0.77083333	     -3.03479839	      3.86632885	     14.50220636	      0.17669316	      0.96754188	      0.23454435	     30.40005032	     -7.85198483	    -11.13615624	     -8.37357507	      8.52616693	     -8.41826666	     10.46214644	    -23.08140553	      2.17657800	     13.09449133	     -8.29709567	      3.09456915	     -4.98262463	     20.31766621	     -1.66512295	     -4.27089287	     -6.97751989
      0.77500000	     -3.06163110	      3.69051414	     14.48023192	      0.18368144	      0.96723358	      0.23484596	     30.42902311	     -7.61165757	    -11.00975136	     -8.97130872	      8.05085441	     -8.71170288	     12.45969678	    -22.97135214	      1.93780096	     12.62794891	     -9.01847562	      2.58637751	     -4.56280166	     26.15099199	     -1.47991442	     -4.05985581	     -6.97414287
      0.77916667	     -3.07726888	      3.49284499	     14.42467558	      0.19072850	      0.96699413	      0.23515401	     30.44499467	     -7.33031103	    -10.83944632	     -9.55265817	      7.51694910	     -9.01631175	     12.45332428	    -22.90674610	      1.69954623	     12.32438984	     -9.67315324	      1.99513379	     -4.41964933	     26.22314053	     -1.29629159	     -3.80273083	     -6.94051039
      0.78333333	     -3.10311296	      3.30411624	     14.35624596	      0.19775636	      0.96676238	      0.23550032	     30.50536017	     -7.06268038	    -10.68870392	    -10.20480383	      7.02883958	     -9.24023355	     12.46876817	    -22.78640073	      1.47348045	     11.92464964	    -10.40929089	      1.40712559	     -4.10822603	     26.37950312	     -1.11074544	     -3.56969456	     -6.90320021
      0.78750000	     -3.13224596	      3.10468301	     14.26582253	      0.20480939	      0.96654910	      0.23585145	     30.59739385	     -6.78483754	    -10.55450589	    -10.91363352	      6.57695681	     -9.42212742	     12.49744181	    -22.64760262	      1.24836615	     11.51693197	    -11.16827568	      0.78166330	     -3.82829819	     26.58082936	     -0.90572744	     -3.31417512	     -6.86153118
      0.79166667	     -3.15648913	      2.90613780	     14.16436689	      0.21184271	      0.96637724	      0.23623554	     30.69907919	     -6.50479058	    -10.41230567	    -11.65343173	      6.13040417	     -9.59455097	     12.54341609	    -22.47731178	      1.02433381	     11.06296211	    -11.98876010	      0.14054797	     -3.49108166	     26.88550374	     -0.71847604	     -3.06591576	     -6.80159537
      0.79583333	     -3.18687367	      2.70403886	     14.04151310	      0.21888818	      0.96621908	      0.23662904	     30.83475109	     -6.22197602	    -10.28251083	    -12.45364377	      5.74408930	     -9.72085994	     12.59163695	    -22.28772469	      0.80857830	     10.61677314	    -12.82803189	     -0.54183582	     -3.20634344	     27.21563627	     -0.51423647	     -2.80556037	     -6.74522931
      0.80000000	     -3.20585438	      2.50259230	     13.90869238	      0.22590645	      0.96611025	      0.23704332	     30.97159669	     -5.93706953	    -10.15443335	    -13.28480130	      5.39111228	     -9.82696543	     12.64106795	    -22.07827810	      0.59197904	     10.14232205	    -13.71988389	     -1.24157654	     -2.89407789	     27.59800495	     -0.33153067	     -2.54369991	     -6.68390679
